<svg id="Ebene_1" data-name="Ebene 1" xmlns="http://www.w3.org/2000/svg" xmlns:xlink="http://www.w3.org/1999/xlink" viewBox="0 0 142.16667 31.68753"><defs><style>.cls-1{fill:none;}.cls-2{fill:#246984;}.cls-3{fill:#0dc8db;}.cls-4{fill:#05a8a8;}.cls-5{fill:#40ebf4;}.cls-6{fill:#247189;}.cls-7{fill:#a8a8a8;}.cls-8{fill:#ebebeb;}.cls-9{fill:#dcdcdc;}.cls-10{fill:#de361f;}.cls-11{isolation:isolate;}.cls-12{clip-path:url(#clip-path);}</style><clipPath id="clip-path"><polygon class="cls-1" points="12.644 15.533 26.967 7.004 35.83 12.116 21.398 20.757 12.644 15.533"/></clipPath></defs><title>Zeichenfläche 1</title><path class="cls-2" d="M59.74474,17.52167A6.27214,6.27214,0,0,1,58.682,21.40412a3.51958,3.51958,0,0,1-2.96795,1.39321,3.23426,3.23426,0,0,1-2.69029-1.29287l-.12447,1.10139H50.41008V7.90017H53.177v5.2749a3.15031,3.15031,0,0,1,2.518-1.11978,3.54927,3.54927,0,0,1,2.97292,1.39321,6.28174,6.28174,0,0,1,1.07688,3.92ZM56.97785,17.321A4.12291,4.12291,0,0,0,56.48,15.02783a1.68433,1.68433,0,0,0-1.484-.723A1.82489,1.82489,0,0,0,53.177,15.38705v4.08772a1.84961,1.84961,0,0,0,1.83821,1.09143A1.70847,1.70847,0,0,0,56.7768,19.245,6.81279,6.81279,0,0,0,56.97785,17.321Z"/><path class="cls-2" d="M61.42977,9.56605a1.36421,1.36421,0,0,1,.41627-1.0248,1.79506,1.79506,0,0,1,2.26445,0,1.46222,1.46222,0,0,1-.005,2.05879,1.7741,1.7741,0,0,1-2.24951,0A1.35812,1.35812,0,0,1,61.42977,9.56605ZM64.369,22.60585H61.59252V12.24677H64.369Z"/><path class="cls-2" d="M70.35236,9.70009v2.54668h1.77119v2.02969H70.35236v5.17a1.23354,1.23354,0,0,0,.2202.82336,1.10434,1.10434,0,0,0,.84252.24893,4.36712,4.36712,0,0,0,.81379-.0674v2.09709a5.71359,5.71359,0,0,1-1.67546.24892,2.64182,2.64182,0,0,1-2.96794-2.9396V14.27646H66.07278V12.24677h1.51269V9.70009Z"/><path class="cls-3" d="M77.37892,12.24677V23.17034a3.70817,3.70817,0,0,1-.90953,2.66693,3.45781,3.45781,0,0,1-2.62328.952,5.65288,5.65288,0,0,1-1.36909-.16237V24.4341a5.19892,5.19892,0,0,0,.87124.08655q1.254,0,1.25419-1.33117V12.24677ZM74.38225,9.56605a1.36169,1.36169,0,0,1,.41666-1.0248,1.801,1.801,0,0,1,2.26866,0A1.46841,1.46841,0,0,1,77.05838,10.6a1.77518,1.77518,0,0,1-2.25028,0A1.35918,1.35918,0,0,1,74.38225,9.56605Z"/><path class="cls-3" d="M79.11181,17.33019a6.14,6.14,0,0,1,.59359-2.74736,4.34673,4.34673,0,0,1,1.70877-1.86731,4.98634,4.98634,0,0,1,2.59-.66023,4.71542,4.71542,0,0,1,3.42252,1.28292A5.14842,5.14842,0,0,1,88.906,16.82315l.01915.70848a5.41706,5.41706,0,0,1-1.33079,3.825,5.15788,5.15788,0,0,1-7.1468.0046,5.50793,5.50793,0,0,1-1.33577-3.9062Zm2.76689.19684A3.87076,3.87076,0,0,0,82.434,19.785a1.99494,1.99494,0,0,0,3.15943.00919,4.23521,4.23521,0,0,0,.56486-2.46857,3.83659,3.83659,0,0,0-.56486-2.24414,1.83789,1.83789,0,0,0-1.58929-.7958,1.80684,1.80684,0,0,0-1.57014.7912A4.309,4.309,0,0,0,81.8787,17.527Z"/><path class="cls-3" d="M96.83292,21.55271a3.46962,3.46962,0,0,1-2.83352,1.24462,3.2723,3.2723,0,0,1-2.54171-.9574,4.08417,4.08417,0,0,1-.89536-2.80557V12.24677h2.76689v6.69951q0,1.61993,1.47439,1.61992a1.99871,1.99871,0,0,0,1.93434-.97731V12.24677h2.77569V22.60585H96.90951Z"/><path class="cls-3" d="M107.42254,14.841a7.61739,7.61739,0,0,0-.9957-.07659,2.02652,2.02652,0,0,0-2.05879,1.06309v6.7784h-2.76651V12.24677h2.61332l.0766,1.23467a2.564,2.564,0,0,1,2.307-1.42615,2.91269,2.91269,0,0,1,.86243.12408Z"/><path class="cls-3" d="M111.29963,12.24677l.08578,1.19637a3.6182,3.6182,0,0,1,2.9779-1.38785,3.00746,3.00746,0,0,1,2.451.9666,4.51366,4.51366,0,0,1,.82336,2.89135v6.69261h-2.76727V15.98064a1.79294,1.79294,0,0,0-.383-1.27832,1.71243,1.71243,0,0,0-1.273-.39752,1.90444,1.90444,0,0,0-1.75242.9957v7.30535H108.6955V12.24677Z"/><path class="cls-3" d="M125.73724,22.60585a3.04235,3.04235,0,0,1-.27727-.92906,3.35008,3.35008,0,0,1-2.61408,1.12054,3.67754,3.67754,0,0,1-2.52295-.88081,2.83225,2.83225,0,0,1-1.00029-2.22117,2.92726,2.92726,0,0,1,1.22088-2.52754,6.02251,6.02251,0,0,1,3.52783-.89076h1.27372v-.59359a1.70664,1.70664,0,0,0-.36917-1.14888,1.44843,1.44843,0,0,0-1.16267-.43045,1.65217,1.65217,0,0,0-1.0968.33471,1.13826,1.13826,0,0,0-.39674.9191h-2.76727a2.77706,2.77706,0,0,1,.55529-1.66587,3.66782,3.66782,0,0,1,1.57014-1.201,5.71029,5.71029,0,0,1,2.27861-.43581,4.52409,4.52409,0,0,1,3.03994.962,3.36685,3.36685,0,0,1,1.12437,2.70447v4.49059a4.9464,4.9464,0,0,0,.41207,2.23036v.16314Zm-2.28858-1.92476a2.38005,2.38005,0,0,0,1.1305-.27266,1.79528,1.79528,0,0,0,.76592-.73223V17.89544h-1.034q-2.07832,0-2.212,1.4361l-.00919.16238a1.11,1.11,0,0,0,.363.85247A1.4123,1.4123,0,0,0,123.44866,20.68109Z"/><path class="cls-3" d="M133.16667,22.60585H130.3902V7.90017h2.77647Z"/><polygon class="cls-4" points="39.067 16.763 39.063 17.284 21.479 27.469 21.482 26.948 39.067 16.763"/><polygon class="cls-5" points="21.482 26.948 21.479 27.469 9.509 20.558 9.513 20.037 21.482 26.948"/><polygon class="cls-6" points="39.067 16.763 21.482 26.948 9.513 20.037 27.098 8.549 39.067 16.763"/><polygon class="cls-2" points="10.862 16.686 9.67 16.115 9.67 19.885 10.862 20.745 10.862 16.686"/><polygon class="cls-7" points="38.002 13.588 37.997 16.944 21.476 26.509 21.48 23.154 38.002 13.588"/><polygon class="cls-8" points="10.455 16.795 10.455 20.154 21.476 26.509 21.48 23.154 10.455 16.795"/><polygon class="cls-9" points="26.89 7.173 11.055 16.341 11.055 17.134 21.48 23.154 38.002 13.588 26.89 7.173"/><polygon class="cls-4" points="39.067 12.452 39.063 12.972 21.479 23.157 21.482 22.637 39.067 12.452"/><polygon class="cls-5" points="21.482 22.637 21.479 23.157 9.509 16.247 9.513 15.726 21.482 22.637"/><polygon class="cls-3" points="39.067 12.452 21.482 22.637 9.513 15.726 27.098 5.541 39.067 12.452"/><polygon class="cls-5" points="10.06 20.637 9.509 20.354 9.509 15.937 10.06 16.273 10.06 20.637"/><polygon class="cls-10" points="14.32 24.193 15.557 24.274 15.698 24.989 18.937 23.119 17.558 22.323 14.32 24.193"/><g class="cls-11"><g class="cls-12"><path class="cls-2" d="M25.293,8.78886l-.50189-.29112-.78094.465.50156.29145.78127-.46537m1.0028.58166-.50305-.29179-.7816.46572-.49942-.29022-.50156-.29145-.78556.46778.50122.29181.49909.29056.50238.29248.78656-.46882-.50271-.29214.50271.29214.78194-.46607m-.21768-1.04933-.50223-.29077-.78478.46732.50189.29112.78512-.46767m1.00347.581-.50338-.29144-.78546.468.50305.29179.78579-.46836m.78117-.46561L27.359,8.14546l-.78083.46526.50338.29144.78117-.46561m.78079-.46538-.50406-.29075-.50075-.28884-.5029-.29008-.77978.46434.50256.29043L26.356,7.56584l-.78017.46458.50223.29077.7805-.46492.50042.28919.50372.29109.78079-.46538"/><path class="cls-2" d="M27.0692,10.74043l-.50182-.29162-.78728.46955.50149.292.78761-.4699m.783-.46714L27.35,9.982l-.78264.46679.50182.29162.783-.46714m.78683-.46944-.50249-.29092L27.35,9.982l.50216.29127.78683-.46944m.78221-.46667-.50284-.29058-.78186.46633.50249.29092.78221-.46667m.78181-.46645-.50316-.29023-.5053-.29147-.78115.46576.505.29181.50284.29058.78181-.46645"/><path class="cls-2" d="M28.6193,11.6412l-.50639-.29427-.78831.47063.506.29462.78865-.471m.784-.4682-.50673-.29392-.78367.46785.50639.29427.784-.4682m.78787-.47051-.50707-.29357-.78753.47016.50673.29392.78787-.47051m.78323-.46774-.5074-.29322-.7829.46739.50707.29357.78323-.46774m.78284-.46751-.50773-.29287-.50437-.29093-.78218.46681.504.29128.5074.29322.78284-.46751"/><path class="cls-2" d="M30.44875,11.77939l-.5052-.293-.78437.46857.50487.29339.7847-.46893m1.01494.5887-.5064-.29373-.785.46928-.5082-.29532-.50487-.29339-.789.47135.50453.29374.50786.29567.50573.29443.79-.47241-.50606-.29407.50606.29407.78538-.46962m-.22637-1.05993-.50554-.29269-.78823.47089.5052.293.78857-.47123m1.01561.588-.50673-.29338-.78891.47158.5064.29373.78924-.47193m.7846-.46916-.50707-.293-.78426.46881.50673.29338.7846-.46916m.78421-.46893-.50741-.29268-.50955-.29392-.50621-.292-.7832.46788.50587.29234-.50587-.29234-.78359.46811.50554.29269.78392-.46846.50922.29427.50707.293.78421-.46893"/><path class="cls-2" d="M32.2553,13.75412l-.50791-.29516-.79074.47315.50757.29551.79108-.4735m.78643-.47071-.50825-.29481-.78609.47036.50791.29516.78643-.47071m.79029-.473-.50859-.29445-.79.47267.50825.29481.79029-.473m.78564-.47024-.50892-.2941-.78531.46989.50859.29445.78564-.47024m.78525-.47-.50926-.29375-.51143-.295-.78458.46931.5111.29536.50892.2941.78525-.47"/><path class="cls-2" d="M19.72237,12.59651l-.49979-.294-.78416.46708.49945.29438.7845-.46742m.78839-.46974-.50013-.29369-.788.46939.49979.294.78839-.46974m.78373-.467-.50047-.29333-.78339.46661.50013.29369.78373-.467m.78758-.46925-.5008-.293-.78725.46891.50047.29333.78758-.46925m.78295-.4665-.50114-.29265-.49785-.29072-.78229.46581.49753.29107.5008.293.78295-.4665"/><path class="cls-2" d="M21.54535,12.7343l-.50136-.29441-.78876.47011.501.29476.78909-.47046m1.00176.58825-.50253-.2951-.78943.47082-.49889-.29351-.501-.29476-.78486.46779.50069.29511.49855.29385.50184.2958.78588-.46884-.50218-.29544.50218.29544.78978-.47116m-.21733-1.05593-.50171-.29406-.78408.46733.50136.29441.78443-.46768m1.00242.58755-.50286-.29474-.78476.468.50253.2951.78509-.46838m.789-.47068-.5032-.29439-.78862.47033.50286.29474.789-.47068m.78432-.46791-.50354-.294-.50023-.29212-.50238-.29336-.78331.46687.502.29371-.502-.29371-.78795.46963.50171.29406.78828-.47.4999.29246.5032.29439.78432-.46791"/><path class="cls-2" d="M23.31381,14.70941l-.504-.29654-.78659.46958.5037.29688.78693-.46992m.79083-.47225-.50438-.29618-.79049.47189.504.29654.79083-.47225m.78614-.46946-.50472-.29583-.7858.46911.50438.29618.78614-.46946m.79-.47176-.50506-.29548-.78968.47141.50472.29583.79-.47176m.78536-.469-.5054-.29513-.50206-.29319-.78469.4683.50173.29353.50506.29548.78536-.469"/><path class="cls-2" d="M25.14523,14.84821l-.50285-.29528-.79119.47263.50251.29563.79153-.473m1.01026.59325-.504-.296-.79188.47333-.50586-.29761-.50251-.29563-.78729.47029.50217.296.50552.298.50338.2967.78831-.47135-.50372-.29635.50372.29635.79221-.47369M25.93207,14.378l-.50318-.29493-.78651.46983.50285.29528.78684-.47018m1.011.59255-.5044-.29564-.78718.47053.504.296.78753-.47088m.79139-.4732-.50473-.29529-.79106.47285.5044.29564.79139-.4732m.78674-.47041-.50507-.29494-.50723-.2962L27.005,13.1416l-.78573.46936.50353.29458-.50353-.29458-.79037.47214.50318.29493.79072-.47249.50689.29655.50473.29529.78674-.47041"/><path class="cls-2" d="M27.22034,16.06676l-.50807-.29835-.79259.47408.50772.2987.79294-.47443m1.01515.59612-.50925-.29905-.79327.47479-.50557-.29743-.50772-.2987-.78868.47174.50738.29905.50522.29779.50857.29975.78971-.4728-.50891-.2994.50891.2994.79361-.47514m-.22691-1.06775-.50841-.298-.7879.47127.50807.29835.78824-.47163m1.01583.59542-.50959-.29869-.78858.472.50925.29905.78892-.47233m.7928-.47465-.50993-.29833-.79246.47429.50959.29869.7928-.47465m.78813-.47186-.51027-.298-.50693-.296-.50909-.29728-.78711.4708.50875.29763-.50875-.29763-.79177.47358.50841.298.79211-.47394.50659.29638.50993.29833.78813-.47186"/><path class="cls-2" d="M14.4216,15.65544l-.49744-.29629-.78668.46855.49709.29664.787-.4689m.79089-.47121-.49777-.29594-.79056.47086.49744.29629.79089-.47121m.78625-.46844-.49812-.29558-.7859.46808.49777.29594.78625-.46844m.79014-.47075-.49846-.29524-.7898.47041.49812.29558.79014-.47075m.78547-.468-.4988-.29489L16.58,13.18922l-.78479.46727.49519.29331.49846.29524.78547-.468"/><path class="cls-2" d="M15.94715,16.56411l-.49654-.29576-.78773.46962.49621.29611.78806-.47m.79195-.47229-.49689-.29541-.7916.47194.49654.29576.79195-.47229m.78728-.46951-.49722-.295-.787.46915.49689.29541.78728-.46951m.79119-.47183L17.82,14.85577l-.79084.47149.49722.295.79119-.47183m.78651-.469-.49791-.29436-.5-.29561-.78583.46834.49967.296.49757.29471.78651-.469"/><path class="cls-2" d="M17.77256,16.70623l-.50082-.29774-.79231.47266.50047.29809.79266-.473m1.00066.59491-.502-.29845-.793.47337-.49833-.29682-.50047-.29809-.78843.47034.50013.29845.498.29717.50131.29916.78945-.47141-.50165-.2988.50165.2988.79334-.47372M18.56055,16.236l-.50116-.29739-.78765.46988.50082.29774.788-.47023m1.00134.59421-.50234-.2981-.78833.47058.502.29845.78867-.47093m.79258-.47327-.50268-.29774-.79224.47291.50234.2981.79258-.47327m.78789-.47047-.503-.29738-.49969-.29542-.50184-.29669-.78687.46942.5015.297-.5015-.297-.79155.47221.50116.29739.79189-.47257.49935.29577.50268.29774.78789-.47047"/><path class="cls-2" d="M19.82524,17.92658l-.50051-.29756-.79372.47411.50017.29792.79406-.47447m1.00554.59781-.5017-.29827-.7944.47482-.5035-.29989-.50017-.29792-.78983.47179.49983.29827.50315.30025.501.299.79086-.47285-.50135-.29863.50135.29863.79475-.47518m-.21615-1.06948-.50086-.29721-.789.47132.50051.29756.78939-.47167m1.00622.5971-.502-.29791-.78973.472.5017.29827.79007-.47238m.794-.47472-.50238-.29756-.79364.47437.502.29791.794-.47472m.78929-.47191-.50273-.29721-.50486-.29847-.50154-.29651-.78826.47085.50119.29686-.50119-.29686-.793.47366.50086.29721.79329-.474.50453.29883.50238.29756.78929-.47191"/><path class="cls-2" d="M21.59836,19.93014l-.5032-.29973-.79158.4736.50285.30008.79193-.47395m.79581-.47629-.50354-.29936-.79547.47592.5032.29973.79581-.47629m.79114-.47347-.50389-.299-.79079.47313.50354.29936.79114-.47347m.795-.47583-.50423-.29865-.79471.47546.50389.299.795-.47583m.79034-.473-.50457-.29831-.5067-.29956-.78966.4723.50636.29992.50423.29865.79034-.473"/></g></g></svg>