<svg id="Ebene_1" data-name="Ebene 1" xmlns="http://www.w3.org/2000/svg" xmlns:xlink="http://www.w3.org/1999/xlink" viewBox="0 0 37.84185 28.0723"><defs><style>.cls-1{fill:none;}.cls-2{fill:#05a8a8;}.cls-3{fill:#40ebf4;}.cls-4{fill:#247189;}.cls-5{fill:#246984;}.cls-6{fill:#a8a8a8;}.cls-7{fill:#ebebeb;}.cls-8{fill:#dcdcdc;}.cls-9{fill:#0dc8db;}.cls-10{fill:#de361f;}.cls-11{isolation:isolate;}.cls-12{clip-path:url(#clip-path);}</style><clipPath id="clip-path" transform="translate(-2.36708 -1.46877)"><polygon class="cls-1" points="6.381 14.261 24.718 3.342 36.064 9.886 17.588 20.948 6.381 14.261"/></clipPath></defs><title>bitjournal-logo_book</title><polygon class="cls-2" points="37.842 14.367 37.837 15.033 15.325 28.072 15.328 27.405 37.842 14.367"/><polygon class="cls-3" points="15.328 27.405 15.325 28.072 0 19.225 0.005 18.558 15.328 27.405"/><polygon class="cls-4" points="37.842 14.367 15.328 27.405 0.005 18.558 22.518 3.851 37.842 14.367"/><polygon class="cls-5" points="1.733 14.268 0.207 13.537 0.207 18.363 1.733 19.464 1.733 14.268"/><polygon class="cls-6" points="36.478 10.302 36.472 14.598 15.321 26.844 15.327 22.548 36.478 10.302"/><polygon class="cls-7" points="1.212 14.408 1.212 18.707 15.321 26.844 15.327 22.548 1.212 14.408"/><polygon class="cls-8" points="22.252 2.089 1.98 13.827 1.98 14.842 15.327 22.548 36.478 10.302 22.252 2.089"/><polygon class="cls-2" points="37.842 8.847 37.837 9.514 15.325 22.552 15.328 21.886 37.842 8.847"/><polygon class="cls-3" points="15.328 21.886 15.325 22.552 0 13.705 0.005 13.039 15.328 21.886"/><polygon class="cls-9" points="37.842 8.847 15.328 21.886 0.005 13.039 22.518 0 37.842 8.847"/><polygon class="cls-3" points="0.706 19.327 0 18.963 0 13.308 0.706 13.74 0.706 19.327"/><polygon class="cls-10" points="6.16 23.878 7.744 23.982 7.924 24.897 12.07 22.504 10.305 21.485 6.16 23.878"/><g class="cls-11"><g class="cls-12"><path class="cls-5" d="M22.57458,5.62666l-.64253-.3727-.99977.59535.6421.37313,1.0002-.59578m1.28381.74465-.644-.37355L22.21375,6.594l-.63937-.37155-.6421-.37313-1.00569.59887.64167.37357.63894.372.64316.37444,1.007-.6002-.64359-.374.64359.374,1.001-.59667M23.5797,5.02794l-.643-.37225L21.93205,5.254l.64253.3727,1.00512-.59872m1.28468.74377-.64445-.37311-1.00555.59916.644.37355,1.006-.5996m1.00006-.59608L25.21957,4.803l-.99964.59564.64445.37311,1.00006-.59608m.99958-.59579-.6453-.37222-.64108-.36979-.64382-.37137-.99829.59447.64339.37181-.64339-.37181-.99879.59476.643.37225.99922-.5952.64065.37022.64487.37267.99958-.59579" transform="translate(-2.36708 -1.46877)"/><path class="cls-5" d="M24.84855,8.1251l-.64245-.37334-1.00788.60114.642.37377,1.00831-.60157m1.00239-.598-.64288-.37289-1.002.59759.64245.37334,1.00239-.598m1.00731-.601-.6433-.37245-1.00689.60054.64288.37289,1.00731-.601m1.0014-.59745-.64374-.372-1.001.597.6433.37245,1.0014-.59745m1.0009-.59715-.64416-.37157-.6469-.37314-1,.59627.64646.37358.64374.372,1.0009-.59715" transform="translate(-2.36708 -1.46877)"/><path class="cls-5" d="M26.833,9.27829l-.64829-.37673-1.00921.6025.64785.37718L26.833,9.27829m1.0037-.59941L27.188,8.3026l-1.00327.599.64829.37673,1.0037-.59941m1.00865-.60235-.64916-.37583L27.188,8.3026l.64872.37628,1.00865-.60235m1.00271-.59881-.64959-.37539-1.00228.59837.64916.37583,1.00271-.59881m1.00221-.59852-.65-.37494-.64571-.37245-1.00135.59762.64527.3729.64959.37539,1.00221-.59852" transform="translate(-2.36708 -1.46877)"/><path class="cls-5" d="M29.17513,9.4552l-.64678-.37515-1.00416.59988.64634.3756,1.0046-.60033m1.29934.75366-.6483-.376-1.005.60077-.65061-.37807-.64634-.3756-1.01011.60343.64591.376.65018.37853.64743.37693,1.01141-.60478-.64787-.37649.64787.37649,1.00546-.60123m-.28981-1.35694-.6472-.3747-1.00911.60283.64678.37515,1.00953-.60328m1.30021.75277-.64873-.37559-1.01.60373.6483.376,1.0104-.60417m1.00446-.60063-.64916-.37514-1.004.60018.64873.37559,1.00446-.60063m1.004-.60033L32.8437,8.029l-.65234-.37628-.64806-.37382-1.00267.599.64763.37426-.64763-.37426-1.00317.59929.6472.3747,1.0036-.59973.65191.37673.64916.37514,1.004-.60033" transform="translate(-2.36708 -1.46877)"/><path class="cls-5" d="M31.48791,11.98329l-.65025-.37787-1.01232.60574.64981.37831,1.01276-.60618m1.00679-.60262-.65067-.37741-1.00637.60216.65025.37787,1.00679-.60262m1.01175-.60558-.65111-.377-1.01131.60513.65067.37741,1.01175-.60558m1.0058-.602-.65154-.37652-1.00537.60157.65111.377,1.0058-.602m1.00529-.60172-.652-.37606-.65475-.37768-1.00443.60082.65432.37812.65154.37652,1.00529-.60172" transform="translate(-2.36708 -1.46877)"/><path class="cls-5" d="M15.443,10.50129l-.63984-.37643-1.0039.598.63941.37687,1.00433-.5984m1.00932-.60137-.64028-.376-1.00888.60093.63984.37643,1.00932-.60137m1.00334-.59782-.6407-.37553L15.812,9.52393l.64028.376,1.00334-.59782m1.00828-.60075-.64114-.37509-1.00784.60031.6407.37553,1.00828-.60075m1.00235-.59722-.64157-.37465-.63736-.37219-1.0015.59633.63694.37264.64114.37509,1.00235-.59722" transform="translate(-2.36708 -1.46877)"/><path class="cls-5" d="M17.7768,10.67769l-.64185-.37691-1.00978.60185.64142.37736,1.01021-.6023m1.28247.75309-.64334-.37778-1.01065.60274L16.76659,11.28l-.64142-.37736-1.0048.59888.641.3778.63826.3762.64247.37868,1.00609-.60022-.6429-.37823.6429.37823,1.01109-.60319M18.781,10.079l-.64229-.37647-1.0038.59829.64185.37691L18.781,10.079m1.28333.7522-.64378-.37734-1.00466.59918.64334.37778,1.0051-.59962m1.01-.60258L20.4302,9.8517l-1.00961.60212.64378.37734,1.01-.60258m1.00411-.599-.64465-.37645-.64041-.374-.64316-.37557-1.00281.59769.64272.376-.64272-.376-1.00874.60123.64229.37647,1.00917-.60168.64.37442.64421.37688,1.00411-.599" transform="translate(-2.36708 -1.46877)"/><path class="cls-5" d="M20.04082,13.20627l-.64528-.37963-1.007.60116.64485.38008,1.00744-.60161m1.01243-.60459-.64572-.37917-1.012.60413.64528.37963,1.01243-.60459m1.00644-.601-.64615-.37873-1.006.60056.64572.37917,1.00644-.601m1.01139-.604-.64658-.37827-1.011.60351.64615.37873,1.01139-.604m1.00545-.60041-.647-.37783-.64275-.37534-1.00458.59952.64233.37579.64658.37827,1.00545-.60041" transform="translate(-2.36708 -1.46877)"/><path class="cls-5" d="M22.38544,13.384l-.64376-.378-1.0129.60507.64332.37848,1.01334-.60552m1.29336.75949-.6453-.37894-1.01378.606-.64762-.381-.64332-.37848-1.0079.60208.64289.37893.64718.38146.64443.37983,1.00921-.60343-.64487-.37939.64487.37939,1.01421-.60642m-.286-1.36142-.6442-.37758-1.0069.60148.64376.378,1.00734-.60193m1.29422.75858-.64573-.37848-1.00777.60238.6453.37894,1.0082-.60284m1.01317-.60579-.64618-.378-1.01272.60535.64573.37848,1.01317-.60579m1.0072-.60224-.64661-.37758-.64936-.3792-.64506-.37668L23.76044,11.8l.64463.37713L23.76044,11.8l-1.01186.60445.6442.37758,1.01229-.6049.64892.37965.64618.378,1.0072-.60224" transform="translate(-2.36708 -1.46877)"/><path class="cls-5" d="M25.042,14.944,24.3916,14.562l-1.01469.60692.65.3824L25.042,14.944m1.29962.76316-.65195-.38284-1.01557.60783-.64723-.38078-.65-.3824-1.00969.60393.64956.38286.6468.38123.65108.38375,1.011-.60529-.65151-.3833.65151.3833,1.016-.60829m-.2905-1.36694-.65087-.3815L24.3916,14.562l.65044.38195,1.00912-.60378m1.30049.76225-.65239-.38238-1.00955.60423.65195.38284,1.01-.60469m1.015-.60765-.65283-.38193-1.01452.6072.65239.38238,1.015-.60765m1.009-.60409-.65327-.38147-.649-.379-.65174-.38059-1.00768.60272.65131.38105-.65131-.38105-1.01364.6063.65087.3815,1.01408-.60675.64854.37942.65283.38193,1.009-.60409" transform="translate(-2.36708 -1.46877)"/><path class="cls-5" d="M8.65682,14.4174,8.02,14.03808l-1.00713.59985.63639.37976,1.00756-.60029m1.01253-.60325-.63727-.37887L8.02,14.03808l.63682.37932,1.01253-.60325m1.00656-.5997-.6377-.37842-1.00613.59925.63727.37887,1.00656-.5997m1.01156-.60268-.63814-.378-1.01112.60223.6377.37842,1.01156-.60268m1.00557-.59911-.63858-.37752-.63439-.375-1.0047.59822.634.37549.63814.378,1.00557-.59911" transform="translate(-2.36708 -1.46877)"/><path class="cls-5" d="M10.60987,15.58069l-.63569-.37863-1.00846.60122.63525.37908,1.0089-.60167m1.01387-.60463-.63613-.37818-1.01343.60418.63569.37863,1.01387-.60463m1.0079-.60107-.63656-.37774-1.00747.60063.63613.37818,1.0079-.60107m1.01289-.60405-.637-.37729-1.01245.6036.63656.37774,1.01289-.60405m1.0069-.60048-.63743-.37684-.64013-.37845-1.006.59959.63969.37889.637.37729,1.0069-.60048" transform="translate(-2.36708 -1.46877)"/><path class="cls-5" d="M12.94679,15.76264l-.64115-.38118-1.01434.60511.64072.38163,1.01477-.60556m1.28108.76162-.64267-.38208-1.01521.606-.638-.38-.64072-.38163-1.00936.60215.64027.38208.63754.38044.64179.383,1.01068-.6035L12.57,16.7482l.64223.38253,1.01565-.60647m-.27228-1.36362-.64159-.38073-1.00836.60155.64115.38118,1.0088-.602m1.28195.76072-.64311-.38163-1.00923.60245.64267.38208,1.00967-.6029m1.01468-.60589-.64355-.38117-1.01424.60543.64311.38163,1.01468-.60589m1.00866-.6023-.644-.38072-.63971-.3782-.64247-.37982-1.00736.601.642.38028-.642-.38028-1.01336.60453.64159.38073,1.0138-.605.63928.37864.64355.38117,1.00866-.6023" transform="translate(-2.36708 -1.46877)"/><path class="cls-5" d="M15.57468,17.325l-.64077-.381-1.01613.607.64033.3814,1.01657-.60742m1.28731.76533-.64228-.38185-1.017.60788-.64458-.38394-.64033-.3814-1.01116.604.63989.38185.64415.38439.6414.38275,1.01248-.60535-.64185-.3823.64185.3823,1.01745-.60833m-.27672-1.36917-.64121-.3805-1.01015.60339.64077.381,1.01059-.60384m1.28819.76442-.64273-.3814-1.011.6043.64228.38185,1.01147-.60475m1.01647-.60775-.64316-.38094-1.016.60729.64273.3814,1.01647-.60775m1.01046-.60414-.6436-.3805-.64634-.38211-.64208-.3796-1.00915.60279.64165.38005-.64165-.38005-1.01516.60639.64121.3805,1.0156-.60684.6459.38257.64316.38094,1.01046-.60414" transform="translate(-2.36708 -1.46877)"/><path class="cls-5" d="M17.84466,19.89l-.6442-.38371-1.0134.60631.64377.38417L17.84466,19.89m1.01882-.60974-.64464-.38326-1.01838.60929.6442.38371,1.01882-.60974m1.01283-.60616-.64509-.3828-1.01238.6057.64464.38326,1.01283-.60616m1.01784-.60916-.64553-.38234-1.0174.6087.64509.3828,1.01784-.60916m1.01181-.60555-.646-.38189-.64869-.38351-1.01094.60465.64825.384.64553.38234,1.01181-.60555" transform="translate(-2.36708 -1.46877)"/></g></g></svg>